<svg width="22" height="22" viewBox="0 0 22 22" fill="none" xmlns="http://www.w3.org/2000/svg">
<path fill-rule="evenodd" clip-rule="evenodd" d="M21.6023 19.0591C20.9233 21.1225 18.263 22.1515 16.3624 21.9799C13.7667 21.7453 10.9421 20.3685 8.79809 18.8521C5.64654 16.623 2.69443 13.1749 0.974203 9.51595C-0.241542 6.93048 -0.514312 3.75165 1.29391 1.39495C1.96264 0.52384 2.68563 0.0585982 3.77232 0.00433698C5.27991 -0.068989 5.49109 0.793474 6.00877 2.13681C6.39446 3.14137 6.90921 4.1661 7.19665 5.20733C7.73486 7.15047 5.85332 7.23169 5.61574 8.81993C5.46762 9.82156 6.6819 11.1648 7.23038 11.879C8.30534 13.2781 9.59734 14.4848 11.0551 15.4028C11.8895 15.9293 13.2372 16.878 14.1934 16.3545C15.6658 15.5479 15.5265 13.0652 17.5855 13.9055C18.6516 14.3396 19.6841 14.966 20.7018 15.5145C22.2754 16.3607 22.2021 17.2377 21.6023 19.0591C22.051 17.6981 21.1535 20.42 21.6023 19.0591Z" fill="white"/>
</svg>
