<svg width="55" height="55" viewBox="0 0 55 55" fill="none" xmlns="http://www.w3.org/2000/svg">
<circle cx="27.4504" cy="27.4504" r="27.4504" fill="white"/>
<path fill-rule="evenodd" clip-rule="evenodd" d="M22.3183 15.153C20.2886 15.2446 18.5295 15.7408 17.109 17.1553C15.6835 18.5772 15.1934 20.3434 15.1016 22.3519C15.0446 23.6055 14.7108 33.0764 15.6785 35.5602C16.3311 37.2358 17.6163 38.5241 19.3073 39.1788C20.0963 39.4857 20.997 39.6934 22.3183 39.7541C33.3659 40.254 37.4612 39.9819 39.1881 35.5602C39.4946 34.7731 39.7055 33.8732 39.7638 32.5552C40.2687 21.4792 39.6819 19.0784 37.7565 17.1553C36.2293 15.6319 34.4329 14.5949 22.3183 15.153ZM22.42 37.5265C21.2104 37.4721 20.5541 37.2705 20.1162 37.101C19.0145 36.6728 18.187 35.8487 17.7615 34.7535C17.0246 32.8663 17.269 23.9028 17.3347 22.4524C17.3993 21.0317 17.6871 19.7333 18.6895 18.7309C19.9301 17.4933 21.533 16.8868 32.4466 17.3794C33.8709 17.4437 35.1723 17.7309 36.1772 18.7309C37.4178 19.9684 38.0331 21.5836 37.5319 32.4553C37.4773 33.6619 37.2751 34.3167 37.1052 34.7535C35.9824 37.6308 33.3994 38.0302 22.42 37.5265ZM32.567 20.847C32.567 21.6663 33.2332 22.3324 34.0557 22.3324C34.8783 22.3324 35.5457 21.6663 35.5457 20.847C35.5457 20.0278 34.8783 19.3622 34.0557 19.3622C33.2332 19.3622 32.567 20.0278 32.567 20.847ZM21.0628 27.4529C21.0628 30.9626 23.9149 33.8081 27.4333 33.8081C30.9517 33.8081 33.8039 30.9626 33.8039 27.4529C33.8039 23.9433 30.9517 21.0996 27.4333 21.0996C23.9149 21.0996 21.0628 23.9433 21.0628 27.4529ZM23.2984 27.4529C23.2984 25.1759 25.1494 23.3284 27.4333 23.3284C29.7173 23.3284 31.5683 25.1759 31.5683 27.4529C31.5683 29.7312 29.7173 31.5793 27.4333 31.5793C25.1494 31.5793 23.2984 29.7312 23.2984 27.4529Z" fill="url(#paint0_linear_72_4)"/>
<defs>
<linearGradient id="paint0_linear_72_4" x1="15" y1="27.468" x2="39.936" y2="27.468" gradientUnits="userSpaceOnUse">
<stop stop-color="#B772FF"/>
<stop offset="1" stop-color="#C963C5"/>
</linearGradient>
</defs>
</svg>
