<svg width="55" height="55" viewBox="0 0 55 55" fill="none" xmlns="http://www.w3.org/2000/svg">
<circle cx="27.5495" cy="27.4504" r="27.4504" fill="white"/>
<path d="M20.231 18.639C20.2306 19.3386 19.9514 20.0094 19.4548 20.5038C18.9582 20.9982 18.2848 21.2758 17.5828 21.2755C16.8808 21.2751 16.2077 20.9969 15.7116 20.502C15.2154 20.007 14.9369 19.336 14.9373 18.6364C14.9376 17.9368 15.2168 17.2661 15.7134 16.7716C16.2101 16.2772 16.8835 15.9997 17.5855 16C18.2874 16.0004 18.9605 16.2786 19.4567 16.7735C19.9528 17.2684 20.2314 17.9395 20.231 18.639ZM20.3104 23.2287H15.0167V39.7409H20.3104V23.2287ZM28.6745 23.2287H23.4072V39.7409H28.6216V31.0759C28.6216 26.2489 34.9344 25.8005 34.9344 31.0759V39.7409H40.1619V29.2823C40.1619 21.1449 30.8185 21.4482 28.6216 25.4444L28.6745 23.2287Z" fill="url(#paint0_linear_72_3)"/>
<defs>
<linearGradient id="paint0_linear_72_3" x1="14.9373" y1="27.8704" x2="40.1619" y2="27.8704" gradientUnits="userSpaceOnUse">
<stop stop-color="#B772FF"/>
<stop offset="1" stop-color="#C963C5"/>
</linearGradient>
</defs>
</svg>
