<svg width="19" height="26" viewBox="0 0 19 26" fill="none" xmlns="http://www.w3.org/2000/svg">
<path fill-rule="evenodd" clip-rule="evenodd" d="M9.5 7.3125C8.18821 7.3125 7.125 8.40369 7.125 9.75C7.125 11.0963 8.18821 12.1875 9.5 12.1875C10.8118 12.1875 11.875 11.0963 11.875 9.75C11.875 8.40369 10.8118 7.3125 9.5 7.3125ZM9.5 13.8125C7.31421 13.8125 5.54167 11.9941 5.54167 9.75C5.54167 7.50587 7.31421 5.6875 9.5 5.6875C11.6858 5.6875 13.4583 7.50587 13.4583 9.75C13.4583 11.9941 11.6858 13.8125 9.5 13.8125ZM9.5 0C4.25363 0 0 4.36556 0 9.75C0 13.8271 7.92063 26.0089 9.5 26C11.0548 26.0089 19 13.7719 19 9.75C19 4.36556 14.7464 0 9.5 0Z" fill="white"/>
</svg>
